<svg width="358" height="535" viewBox="0 0 358 535" fill="none" xmlns="http://www.w3.org/2000/svg">
<path d="M257.78 37.4001C245.88 36.6401 234.5 43.3501 223.83 57.3201L200.26 261.67C207.12 262.36 213.98 263.01 220.83 263.72L265.53 268.31L302.77 73.2101C299.64 68.0701 280.96 38.8801 257.78 37.4001ZM251.54 206.62C249.48 206.84 247.42 206.92 245.42 206.92C242.31 206.92 239.33 206.72 236.66 206.49C232.27 206.04 227.1 205.38 222.01 203.84L218.26 202.71L222.15 202.3C227.45 201.74 232.64 202.05 237.03 202.43C241.44 202.88 246.61 203.55 251.68 205.08L255.45 206.22L251.54 206.62ZM275.15 127.33C272.85 126.73 270.56 126.13 268.28 125.53C263.04 124.14 257.62 122.71 252.27 121.47C248.95 120.69 245.31 119.94 240.8 119.1C237.37 118.55 233.29 117.94 229.16 117.56L222.74 116.98L229.11 115.99C232.9 115.4 236.99 115.27 241.25 115.6C244.94 115.91 248.85 116.53 253.19 117.49C261.94 119.62 269.3 122.36 275.72 125.88L281.3 128.94L275.15 127.33Z" fill="white"/>
<path d="M130.57 273.26C127.45 272.45 109.65 268.35 95.6398 276.74C87.0398 281.9 81.3698 290.85 78.7798 303.36L109.65 384.16C114.98 385.98 139.78 393.62 157.81 384.42C166.59 379.94 172.59 372.02 175.65 360.86C173.35 353.71 153.16 292.49 130.57 273.26ZM87.6998 306.06C87.6998 306.06 107.93 288.88 128.31 280.8C124.01 284.49 102.78 299.94 87.6998 306.06Z" fill="white"/>
<path d="M357.04 329.28L293.42 253.79L326.71 70.48L327.13 68.12L324.85 63.71C323.94 61.96 302.21 20.77 265.36 15.49C244.47 12.52 224.1 21.19 204.74 41.34L201.25 44.99L195.94 99.67L188.77 36.05L185.83 32.67C184.5 31.11 152.73 -5.46997 115.62 0.710028C93.2 4.39003 75.35 22.2 62.59 53.63L60.94 57.69L98.67 245.86C86.78 249.47 64.63 259.96 55.53 289.14C32.35 293.7 6.27 310.73 0.34 345.53L0 347.48L0.19 349.44C0.47 352.38 7.38 422.03 33.19 476.02L54.28 497.73L52.4 534.73L285.5 534.72L273.83 479.06C292.97 459.54 349.19 397.44 356.31 335.51L357.04 329.28ZM331.44 345.02L330.28 350.03L328.73 354.93C327.68 358.19 326.7 361.48 325.58 364.72L321.76 374.27C316.37 386.86 310.07 399.11 302.53 410.56C295.1 422.07 286.87 433.07 277.89 443.43C269.2 453.39 260.01 462.8 249.88 471.5L259.58 518.87L244.69 471.21C244.44 470.39 244.65 469.46 245.33 468.84L245.55 468.64C255.78 460.1 265.38 450.41 274.3 440.32C283.21 430.18 291.38 419.41 298.76 408.14C306.25 396.93 312.51 384.95 317.87 372.64L321.68 363.31C322.8 360.15 323.77 356.93 324.82 353.74L326.37 348.95L327.53 344.06L329.62 335.17C320.4 325.12 311.28 314.98 302.2 304.81C293.11 294.63 283.95 284.51 274.95 274.26L220.32 268.42C202.48 266.55 184.66 264.55 166.84 262.55C165.28 274.46 166.33 287.01 170.4 298.25C174.66 310.15 182.97 320.27 193.57 327.2C204.22 334.12 216.72 338.16 229.49 340.38C242.31 342.66 255.41 343.45 268.7 344.44C259.13 346.16 249.34 346.76 239.56 346.26C240.06 346.99 240.53 347.73 241.05 348.45C242.57 350.51 244.14 352.56 245.82 354.51C247.49 356.47 249.24 358.37 251.1 360.17C252.97 361.95 254.91 363.69 257.09 365.15C254.7 364.06 252.48 362.63 250.3 361.14C248.13 359.63 246.06 357.99 244.04 356.28C242.01 354.57 240.09 352.75 238.19 350.89C236.5 349.22 234.89 347.48 233.29 345.71C231.76 345.56 230.23 345.47 228.71 345.26C215.43 343.25 202.06 339.4 190.46 331.9C178.79 324.57 169.73 313.04 165.25 300.08C164.09 296.85 163.24 293.53 162.55 290.19C161.96 286.83 161.54 283.45 161.36 280.07C161.06 273.27 161.38 266.57 162.92 259.8V259.79C163.14 258.79 164.08 258.07 165.14 258.17L165.19 258.18C171.94 258.83 178.69 259.54 185.44 260.2L171.52 115.87L163.84 117.49C159.88 118.33 155.88 118.94 152.44 119.44C148.64 120.02 144.77 120.46 141.03 120.89C137.46 121.25 133.45 121.66 129.53 121.91C126.05 122.15 122 122.4 117.98 122.43L110.18 122.48L117.81 120.86C121.76 120.02 125.76 119.41 129.21 118.9C133.12 118.3 137.12 117.85 140.64 117.45C144.48 117.06 148.33 116.67 152.13 116.43C156.42 116.14 160.02 115.94 163.68 115.91L171.53 115.86L165.05 48.71C161.14 44.96 139.2 25.09 118.15 29.08C105.87 31.41 95.85 41.53 88.34 59.14L129.37 267.84C131.17 268.22 132.32 268.55 132.51 268.61C132.83 268.71 133.13 268.87 133.39 269.08C158.57 289.92 179.79 357.21 180.68 360.06C180.82 360.5 180.83 360.98 180.71 361.43C177.34 374.4 170.4 383.63 160.09 388.88C152.7 392.64 144.48 393.91 136.74 393.91C121.2 393.91 107.63 388.78 106.79 388.46C106.12 388.2 105.6 387.68 105.35 387.01L100.87 375.29C101.87 379.92 102.7 384.6 103.29 389.32C103.39 390.13 103.06 390.98 102.36 391.51L102.32 391.54L102.31 391.55C98.52 394.33 94.67 396.55 90.57 398.59C86.48 400.58 82.23 402.29 77.77 403.47C73.31 404.62 68.66 405.26 63.95 405.18C59.22 404.97 54.53 403.84 50.16 401.89C49.87 401.76 49.59 401.56 49.37 401.29L49.33 401.24C46.26 397.87 43.91 394.29 41.68 390.54C39.48 386.8 37.64 382.88 35.95 378.91C34.29 374.93 32.7 370.93 31.49 366.8C30.17 362.72 29.15 358.55 28.3 354.36C30.13 358.23 31.92 362.08 33.83 365.86C35.74 369.64 37.75 373.35 39.8 377.01C41.92 380.64 44.16 384.18 46.38 387.71C48.49 391.05 50.72 394.41 52.88 397.54C56.44 399.03 60.22 399.98 64.14 400.16C68.26 400.23 72.41 399.67 76.48 398.62C80.55 397.54 84.51 395.95 88.34 394.08C91.71 392.41 95.03 390.45 98.06 388.34C97.24 381.78 96.18 375.23 94.29 368.85C92.34 361.99 89.99 355.22 87.06 348.68C84.18 342.12 80.92 335.71 77.28 329.51C73.8 323.61 69.97 317.81 65.86 312.44C60.79 312.13 55.3 312.76 50.37 314.38C45.11 316.09 40.27 318.9 36.22 322.61C34.33 324.6 32.3 326.48 30.82 328.84C30.07 330 29.11 331.02 28.52 332.29L26.57 335.98C25.84 337.17 25.44 338.54 24.93 339.84L23.42 343.77L21.32 351.62C22.78 361.12 24.65 370.65 26.74 380.08C28.9 389.65 31.27 399.19 34.09 408.57C36.94 417.94 40.01 427.26 43.77 436.27C47.52 445.18 51.75 453.89 56.95 461.92L77.87 481.04H77.88L78.06 481.21C78.49 481.63 78.74 482.23 78.7 482.88L76.18 518.84L73.74 484.05L53.33 465.32L53.3 465.29C53.17 465.17 53.04 465.02 52.94 464.86C47.44 456.36 43.08 447.31 39.23 438.11C35.4 428.89 32.32 419.43 29.45 409.92C26.61 400.4 24.24 390.77 22.08 381.09C19.96 371.4 18.06 361.7 16.58 351.83L16.57 351.74C16.54 351.52 16.55 351.28 16.61 351.05V351.04C17.33 348.12 18 345.19 18.77 342.29L20.36 338.03C20.92 336.62 21.35 335.16 22.13 333.84L24.26 329.78C24.91 328.4 25.96 327.22 26.8 325.94C28.45 323.33 30.71 321.16 32.85 318.93C37.42 314.69 43.04 311.64 48.95 309.79C54.92 307.95 61.03 307.32 67.41 308.12C67.93 308.19 68.42 308.45 68.77 308.89L68.78 308.9L68.79 308.91C73.43 314.79 77.47 320.87 81.27 327.19C82.7 329.58 84.02 332.04 85.33 334.49L73.85 304.43C73.68 303.99 73.64 303.52 73.73 303.06C76.54 288.73 83.06 278.42 93.11 272.41C103.85 265.98 116.13 265.96 124.1 266.93L83.25 59.35C83.16 58.87 83.21 58.37 83.4 57.91C91.63 38.21 103.01 26.85 117.22 24.16C143 19.27 168.21 44.73 169.27 45.82C169.67 46.23 169.91 46.76 169.97 47.32L190.56 260.69C192.12 260.84 193.69 261 195.25 261.16L218.9 56.08C218.95 55.64 219.12 55.22 219.39 54.87C231.27 39.09 244.3 31.49 258.12 32.42C286.14 34.22 306.75 70.02 307.61 71.54C307.9 72.06 308 72.65 307.89 73.24L270.56 268.85L276.45 269.46C277.04 269.52 277.62 269.8 278.05 270.27L278.06 270.28C287.38 280.68 296.54 291.24 305.76 301.73C314.99 312.22 324.19 322.73 333.27 333.35L333.32 333.41C333.69 333.83 333.86 334.42 333.73 335.01L331.44 345.02ZM271.25 282.19C271.25 282.19 259.59 306.03 244.14 321.59C246.6 316.49 259.88 293.83 271.25 282.19ZM161.06 204.7C157.91 205.29 154.69 205.73 151.57 206.17C148.62 206.54 145.29 206.95 142.01 207.21C139.11 207.45 135.74 207.71 132.38 207.74L125.9 207.8L132.18 206.18C135.43 205.34 138.76 204.72 141.62 204.21C144.87 203.61 148.18 203.15 151.11 202.75C154.22 202.36 157.43 201.97 160.67 201.72C164.23 201.42 167.24 201.21 170.3 201.18L176.84 201.11L170.51 202.74C167.25 203.57 163.92 204.19 161.06 204.7ZM31.68 350.09C31.68 350.09 48.63 332.7 66.57 323.88C62.97 327.62 44.93 343.44 31.68 350.09Z" fill="white"/>
</svg>
